<svg aria-hidden="true" style="position: absolute; width: 0; height: 0; overflow: hidden;" version="1.1" xmlns="http://www.w3.org/2000/svg" xmlns:xlink="http://www.w3.org/1999/xlink">
<defs>
<symbol id="icon-burger" viewBox="0 0 32 32">
<path fill="none" stroke="#fafafa" style="stroke: var(--color1, #fafafa)" stroke-linejoin="round" stroke-linecap="round" stroke-miterlimit="4" stroke-width="2.2857" d="M4 11.333h24M4 20.667h24"></path>
</symbol>
<symbol id="icon-email" viewBox="0 0 166 32">
<path fill="none" stroke="#fafafa" style="stroke: var(--color1, #fafafa)" stroke-linejoin="miter" stroke-linecap="butt" stroke-miterlimit="4" stroke-width="0.8649" d="M16 0.432h140.973c8.598 0 15.568 6.97 15.568 15.568s-6.97 15.568-15.568 15.568h-140.973c-8.598 0-15.568-6.97-15.568-15.568s6.97-15.568 15.568-15.568z"></path>
<path fill="#fafafa" style="fill: var(--color1, #fafafa)" d="M11.287 20.757v-8.924h1.465v8.924h-1.465zM14.332 20.757v-8.924h1.465v8.924h-1.465zM18.599 20.757l-1.344-1.344v-3.632l1.344-1.356h3.172l1.344 1.356v3.632l-1.344 1.344h-3.172zM19.253 19.631l1.865-0.012 0.533-0.533v-2.991l-0.533-0.533h-1.865l-0.533 0.533v2.991l0.533 0.545zM25.366 23.021l1.114-2.627h-0.557l-2.446-5.969h1.61l1.695 4.528h0.291l1.695-4.528h1.61l-3.536 8.597h-1.477zM32.080 20.757l-1.344-1.344v-3.632l1.344-1.356h2.264l0.932 0.932v-3.523h1.465v8.924h-1.465v-0.92l-0.932 0.92h-2.264zM33.981 19.619l1.296-1.271v-1.501l-1.296-1.283h-1.247l-0.533 0.533v2.991l0.533 0.533h1.247zM38.445 13.734v-1.514h1.465v1.514h-1.465zM37.041 23.021v-1.199h0.908l0.496-0.521v-6.877h1.465v7.398l-1.235 1.199h-1.635zM42.651 20.757l-1.344-1.344v-3.632l1.344-1.356h2.906l1.344 1.356v2.349h-4.129v0.896l0.533 0.533h3.487v1.199h-4.141zM42.772 17.003h2.664v-0.908l-0.533-0.533h-1.598l-0.533 0.533v0.908zM48.388 20.757v-5.194h-0.496v-1.138h0.496v-1.38l1.211-1.211h1.647v1.199h-0.908l-0.484 0.521v0.872h1.114v1.138h-1.114v5.194h-1.465zM51.953 20.757v-5.194h-0.496v-1.138h0.496v-1.38l1.211-1.211h1.647v1.199h-0.908l-0.484 0.521v0.872h1.114v1.138h-1.114v5.194h-1.465zM56.705 20.757l-1.344-1.344v-3.632l1.344-1.356h2.906l1.344 1.356v2.349h-4.129v0.896l0.533 0.533h3.487v1.199h-4.141zM56.826 17.003h2.664v-0.908l-0.533-0.533h-1.598l-0.533 0.533v0.908zM62.405 20.757v-6.333h1.465v1.126l1.138-1.126h1.429v1.465h-1.417l-1.15 1.15v3.717h-1.465zM67.179 20.757v-1.199h3.318l0.484-0.496v-0.412l-0.569-0.569h-2.349l-1.235-1.211v-1.223l1.211-1.223h3.729v1.199h-3.003l-0.472 0.472v0.279l0.545 0.545h2.373l1.235 1.211v1.417l-1.211 1.211h-4.056zM74.886 20.757l-1.344-1.344v-3.632l1.344-1.356h3.172l1.344 1.356v3.632l-1.344 1.344h-3.172zM75.539 19.631l1.865-0.012 0.533-0.533v-2.991l-0.533-0.533h-1.865l-0.533 0.533v2.991l0.533 0.545zM80.858 20.757v-6.333h1.465v1.126l1.138-1.126h2.264l1.344 1.356v4.976h-1.465v-4.637l-0.509-0.557h-1.283l-1.489 1.477v3.717h-1.465zM90.281 23.021l-1.877-1.877v-7.434l1.877-1.877h7.495l1.889 1.877v5.497l-1.223 1.211h-2.046l-0.848-0.848-0.908 0.848h-2.095l-1.344-1.344v-3.293l1.344-1.356h1.865l0.775 0.751v-0.751h1.465v4.347l0.448 0.448h0.642l0.46-0.448v-4.492l-1.259-1.247h-5.824l-1.247 1.247v6.296l1.247 1.247h6.793l1.126-1.114 0.92 0.932-1.392 1.38h-8.282zM94.228 19.219l0.957-0.86v-1.744l-1.017-0.993h-0.835l-0.666 0.666v2.264l0.666 0.666h0.896zM101.606 23.021v-1.199h3.548l0.545-0.533-0.012-1.465-0.932 0.932h-2.264l-1.344-1.344v-3.632l1.344-1.356h2.264l0.932 0.932v-0.932h1.465v7.253l-1.344 1.344h-4.201zM104.391 19.619l1.296-1.283v-1.489l-1.296-1.283h-1.247l-0.533 0.533v2.991l0.533 0.533h1.247zM108.723 20.757v-6.333h1.465v1.126l1.138-1.126h2.264l1.126 1.138 1.138-1.138h2.264l1.344 1.356v4.976h-1.465v-4.637l-0.509-0.557h-1.283l-1.271 1.271v3.923h-1.465v-4.637l-0.509-0.557h-1.283l-1.489 1.477v3.717h-1.465zM121.778 20.757l-1.344-1.344v-1.368l1.344-1.356h3.063v-0.533l-0.533-0.533h-3.039v-1.199h3.693l1.344 1.356v4.976h-1.465v-0.92l-0.932 0.92h-2.131zM122.432 19.631l1.138-0.012 1.271-1.271v-0.521h-2.409l-0.533 0.533v0.727l0.533 0.545zM127.819 13.734v-1.514h1.465v1.514h-1.465zM127.819 20.757v-6.333h1.465v6.333h-1.465zM130.864 20.757v-8.924h1.465v8.924h-1.465zM133.849 20.757v-1.514h1.465v1.514h-1.465zM138.178 20.757l-1.344-1.344v-3.632l1.344-1.356h3.027l1.211 1.187v1.187h-1.465v-0.702l-0.533-0.533h-1.586l-0.533 0.533v2.93l0.533 0.533h3.536v1.199h-4.189zM144.853 20.757l-1.344-1.344v-3.632l1.344-1.356h3.172l1.344 1.356v3.632l-1.344 1.344h-3.172zM145.507 19.631l1.865-0.012 0.533-0.533v-2.991l-0.533-0.533h-1.865l-0.533 0.533v2.991l0.533 0.545zM150.825 20.757v-6.333h1.465v1.126l1.138-1.126h2.264l1.126 1.138 1.138-1.138h2.264l1.344 1.356v4.976h-1.465v-4.637l-0.509-0.557h-1.283l-1.271 1.271v3.923h-1.465v-4.637l-0.509-0.557h-1.283l-1.489 1.477v3.717h-1.465z"></path>
</symbol>
<symbol id="icon-facebook" viewBox="0 0 32 32">
<path fill="none" stroke="#fafafa" style="stroke: var(--color1, #fafafa)" stroke-linejoin="miter" stroke-linecap="butt" stroke-miterlimit="4" stroke-width="0.8649" d="M16 0.432c8.598 0 15.568 6.97 15.568 15.568s-6.97 15.568-15.568 15.568c-8.598 0-15.568-6.97-15.568-15.568s6.97-15.568 15.568-15.568z"></path>
<path fill="#fafafa" style="fill: var(--color1, #fafafa)" d="M9.185 20.757v-8.924h5.969v1.38h-4.456v2.337h3.923v1.38h-3.923v3.826h-1.514zM16.002 20.757v-8.924h5.134l1.344 1.344v2.095l-0.581 0.654 0.981 0.969v2.518l-1.344 1.344h-5.533zM17.515 15.417h2.918l0.521-0.605v-1.114l-0.533-0.533h-2.906v2.252zM17.515 19.425h3.305l0.533-0.533v-1.61l-0.533-0.533h-3.305v2.676z"></path>
</symbol>
<symbol id="icon-githab" viewBox="0 0 32 32">
<path fill="none" stroke="#fafafa" style="stroke: var(--color1, #fafafa)" stroke-linejoin="miter" stroke-linecap="butt" stroke-miterlimit="4" stroke-width="0.8649" d="M16 0.432c8.598 0 15.568 6.97 15.568 15.568s-6.97 15.568-15.568 15.568c-8.598 0-15.568-6.97-15.568-15.568s6.97-15.568 15.568-15.568z"></path>
<path fill="#fafafa" style="fill: var(--color1, #fafafa)" d="M8.953 20.757l-1.308-1.344v-6.236l1.344-1.344h4.432l1.235 1.223-0.969 0.969-0.872-0.86h-3.124l-0.533 0.533 0.012 5.194 0.521 0.533h2.325l1.392-1.247v-0.993h-2.034v-1.332h3.293v4.904h-1.259v-0.92l-1.017 0.92h-3.439zM16.36 20.757v-8.924h1.514v3.584h3.911v-3.584h1.514v8.924h-1.514v-4.008h-3.911v4.008h-1.514z"></path>
</symbol>
<symbol id="icon-instagram" viewBox="0 0 35 32">
<path fill="none" stroke="#fafafa" style="stroke: var(--color1, #fafafa)" stroke-linejoin="miter" stroke-linecap="butt" stroke-miterlimit="4" stroke-width="0.8649" d="M16 0.432h2.595c8.598 0 15.568 6.97 15.568 15.568s-6.97 15.568-15.568 15.568h-2.595c-8.598 0-15.568-6.97-15.568-15.568s6.97-15.568 15.568-15.568z"></path>
<path fill="#fafafa" style="fill: var(--color1, #fafafa)" d="M11.105 20.757v-1.38h0.908v-6.163h-0.908v-1.38h3.33v1.38h-0.908v6.163h0.908v1.38h-3.33zM16.947 20.757l-1.308-1.344v-6.236l1.344-1.344h4.432l1.235 1.223-0.969 0.969-0.872-0.86h-3.124l-0.533 0.533 0.012 5.194 0.521 0.533h2.325l1.392-1.247v-0.993h-2.034v-1.332h3.293v4.904h-1.259v-0.92l-1.017 0.92h-3.439z"></path>
</symbol>
<symbol id="icon-youtube" viewBox="0 0 32 32">
<path fill="none" stroke="#fafafa" style="stroke: var(--color1, #fafafa)" stroke-linejoin="miter" stroke-linecap="butt" stroke-miterlimit="4" stroke-width="0.8649" d="M16 0.432c8.598 0 15.568 6.97 15.568 15.568s-6.97 15.568-15.568 15.568c-8.598 0-15.568-6.97-15.568-15.568s6.97-15.568 15.568-15.568z"></path>
<path fill="#fafafa" style="fill: var(--color1, #fafafa)" d="M11.449 20.757v-3.281l-3.112-5.642h1.731l1.998 3.899h0.291l1.998-3.899h1.731l-3.112 5.642v3.281h-1.526zM18.761 20.757v-7.543h-2.482v-1.38h6.478v1.38h-2.482v7.543h-1.514z"></path>
</symbol>
<symbol id="icon-success-x" viewBox="0 0 32 32">
<path fill="none" stroke="#fafafa" style="stroke: var(--color1, #fafafa)" stroke-linejoin="round" stroke-linecap="round" stroke-miterlimit="4" stroke-width="2.6667" d="M24 8l-16 16"></path>
<path fill="none" stroke="#fafafa" style="stroke: var(--color1, #fafafa)" stroke-linejoin="round" stroke-linecap="round" stroke-miterlimit="4" stroke-width="2.6667" d="M8 8l16 16"></path>
</symbol>
</defs>
</svg>
